<svg xmlns="http://www.w3.org/2000/svg" viewBox="0 0 512 512">
<defs>
  <linearGradient id="bg" x1="0" y1="0" x2="1" y2="1">
    <stop offset="0" stop-color="#0f172a"/>
    <stop offset="1" stop-color="#1e3a5f"/>
  </linearGradient>
</defs>
<rect width="512" height="512" rx="96" fill="url(#bg)"/>
<circle cx="256" cy="256" r="205" fill="none" stroke="#f8fafc" stroke-width="10" opacity=".95"/>
<circle cx="256" cy="256" r="176" fill="none" stroke="#94a3b8" stroke-width="3" stroke-dasharray="10 12" opacity=".8"/>

<!-- régua/escala pericial -->
<g transform="translate(105 352)">
  <rect x="0" y="0" width="302" height="28" rx="6" fill="#f8fafc"/>
  <g fill="#0f172a">
    <rect x="14" y="0" width="4" height="28"/>
    <rect x="38" y="0" width="3" height="16"/>
    <rect x="62" y="0" width="3" height="22"/>
    <rect x="86" y="0" width="3" height="16"/>
    <rect x="110" y="0" width="4" height="28"/>
    <rect x="134" y="0" width="3" height="16"/>
    <rect x="158" y="0" width="3" height="22"/>
    <rect x="182" y="0" width="3" height="16"/>
    <rect x="206" y="0" width="4" height="28"/>
    <rect x="230" y="0" width="3" height="16"/>
    <rect x="254" y="0" width="3" height="22"/>
    <rect x="278" y="0" width="3" height="16"/>
  </g>
</g>

<!-- carro em vista superior -->
<g transform="translate(0 -8)">
  <path d="M176 287
           C171 246 173 204 190 159
           C198 137 216 123 256 123
           C296 123 314 137 322 159
           C339 204 341 246 336 287
           C332 321 310 337 256 337
           C202 337 180 321 176 287Z"
        fill="#f8fafc"/>
  <path d="M205 182
           C212 153 226 143 256 143
           C286 143 300 153 307 182
           C288 176 224 176 205 182Z"
        fill="#0f172a" opacity=".95"/>
  <path d="M204 279
           C221 288 291 288 308 279
           C301 309 284 320 256 320
           C228 320 211 309 204 279Z"
        fill="#0f172a" opacity=".95"/>
  <rect x="159" y="213" width="28" height="67" rx="13" fill="#f8fafc"/>
  <rect x="325" y="213" width="28" height="67" rx="13" fill="#f8fafc"/>
  <circle cx="197" cy="310" r="10" fill="#facc15"/>
  <circle cx="315" cy="310" r="10" fill="#facc15"/>
</g>

<text x="256" y="252" font-size="72" text-anchor="middle"
      font-family="Arial, Helvetica, sans-serif" font-weight="900"
      fill="#0f172a">FCM</text>

<text x="256" y="103" font-size="31" text-anchor="middle"
      font-family="Arial, Helvetica, sans-serif" font-weight="800"
      fill="#f8fafc" letter-spacing="2">PERÍCIA</text>
<text x="256" y="432" font-size="25" text-anchor="middle"
      font-family="Arial, Helvetica, sans-serif" font-weight="800"
      fill="#f8fafc" letter-spacing="1">ATROPELAMENTO</text>
</svg>